<svg xmlns="http://www.w3.org/2000/svg" xmlns:xlink="http://www.w3.org/1999/xlink" width="296" height="125" viewBox="0 0 296 125">
  <defs>
    <filter id="_244_200" x="0" y="0" width="296" height="125" filterUnits="userSpaceOnUse">
      <feOffset dy="3" input="SourceAlpha"/>
      <feGaussianBlur stdDeviation="2" result="blur"/>
      <feFlood flood-opacity="0.161"/>
      <feComposite operator="in" in2="blur"/>
      <feComposite in="SourceGraphic"/>
    </filter>
    <linearGradient id="linear-gradient" x1="0.5" x2="0.5" y2="1" gradientUnits="objectBoundingBox">
      <stop offset="0" stop-color="#1a8017"/>
      <stop offset="0.5" stop-color="#66bc63"/>
      <stop offset="1" stop-color="#0c6509"/>
    </linearGradient>
  </defs>
  <g id="グループ_26" data-name="グループ 26" transform="translate(-1203 -8648)">
    <g transform="matrix(1, 0, 0, 1, 1203, 8648)" filter="url(#_244_200)">
      <text id="_244_200-2" data-name="244,200" transform="translate(16 84)" fill="none" stroke="#fffcfc" stroke-linecap="round" stroke-linejoin="round" stroke-width="10" font-size="72" font-family="FuturaPT-Demi, Futura PT" font-weight="300"><tspan x="0" y="0">244,200</tspan></text>
    </g>
    <path id="交差_4" data-name="交差 4" d="M-4817.329,397.432l7.633-19.367,8.064.936-10.152,19.08Zm103.321-33.48c0-15.438,7.89-23.933,16.756-24.952h3.639c8.866,1.019,16.757,9.518,16.757,25.025,0,16.487-9,25.056-18.577,25.056S-4714.008,380.512-4714.008,363.951Zm9.36,0c0,12.529,5.111,17.065,9.215,17.065s9.216-4.536,9.216-17.065c0-12.456-5.184-16.992-9.216-16.992S-4704.647,351.5-4704.647,363.951Zm-50.256,0c0-15.438,7.89-23.933,16.756-24.952h3.639c8.866,1.019,16.757,9.518,16.757,25.025,0,16.487-9,25.056-18.577,25.056S-4754.9,380.512-4754.9,363.951Zm9.36,0c0,12.529,5.112,17.065,9.215,17.065s9.216-4.536,9.216-17.065c0-12.456-5.184-16.992-9.216-16.992S-4745.543,351.5-4745.543,363.951ZM-4796.376,388l14.111-16.056c.865-1.008,6.48-7.416,8.208-10.007,1.3-1.944,2.808-4.9,2.808-7.7a6.96,6.96,0,0,0-7.127-7.272c-4.9,0-7.488,3.889-7.633,7.992h-9.648c.4-9.059,6.346-15.1,14.76-15.952h4.3c9.711.937,14.713,8.049,14.713,15.16,0,7.416-4.967,12.743-8.712,16.776l-8.279,9h17.352V388Zm-35.712,0v-9.072h-23.472v-4.176l23.833-34.775h8.423V371.44h5.616v7.488h-5.616V388Zm-12.384-16.559h12.384V353.152ZM-4873.7,388v-9.072h-23.472v-4.176l23.833-34.775h8.423V371.44h5.616v7.488h-5.616V388Zm-12.384-16.559h12.384V353.152ZM-4936.7,388l14.113-16.056c.864-1.008,6.479-7.416,8.208-10.007,1.3-1.944,2.807-4.9,2.807-7.7a6.96,6.96,0,0,0-7.127-7.272c-4.9,0-7.488,3.889-7.633,7.992h-9.647c.4-9.059,6.346-15.1,14.759-15.952h4.3c9.711.937,14.713,8.049,14.713,15.16,0,7.416-4.968,12.743-8.712,16.776l-8.279,9h17.352V388Z" transform="translate(6157 8344)" fill="url(#linear-gradient)"/>
  </g>
</svg>
