<svg xmlns="http://www.w3.org/2000/svg" xmlns:xlink="http://www.w3.org/1999/xlink" width="285" height="125" viewBox="0 0 285 125">
  <defs>
    <filter id="_467_500" x="0" y="0" width="285" height="125" filterUnits="userSpaceOnUse">
      <feOffset dy="3" input="SourceAlpha"/>
      <feGaussianBlur stdDeviation="2" result="blur"/>
      <feFlood flood-opacity="0.161"/>
      <feComposite operator="in" in2="blur"/>
      <feComposite in="SourceGraphic"/>
    </filter>
    <linearGradient id="linear-gradient" x1="0.5" x2="0.5" y2="1" gradientUnits="objectBoundingBox">
      <stop offset="0" stop-color="#1a8017"/>
      <stop offset="0.5" stop-color="#66bc63"/>
      <stop offset="1" stop-color="#0c6509"/>
    </linearGradient>
  </defs>
  <g id="_467_500-2" data-name="467,500" transform="translate(-1222 -7765)">
    <g transform="matrix(1, 0, 0, 1, 1222, 7765)" filter="url(#_467_500)">
      <text id="_467_500-3" data-name="467,500" transform="translate(16 84)" fill="none" stroke="#fffcfc" stroke-linecap="round" stroke-linejoin="round" stroke-width="10" font-size="72" font-family="FuturaPT-Demi, Futura PT" font-weight="300"><tspan x="0" y="0">467,500</tspan></text>
    </g>
    <path id="交差_2" data-name="交差 2" d="M-4818.056,397.432l7.632-19.368,8.063.936-10.152,19.08Zm-27.145-11.52,22.1-37.871h-22.32v-8.065h37.008l-28.871,49.464Zm130.464-21.96c0-15.439,7.892-23.934,16.758-24.952h3.636c8.867,1.018,16.758,9.518,16.758,25.025,0,16.487-9,25.056-18.576,25.056S-4714.736,380.512-4714.736,363.952Zm9.36,0c0,12.528,5.113,17.065,9.216,17.065s9.216-4.536,9.216-17.065c0-12.455-5.184-16.992-9.216-16.992S-4705.376,351.5-4705.376,363.952Zm-50.256,0c0-15.439,7.892-23.934,16.758-24.952h3.636c8.867,1.018,16.758,9.518,16.758,25.025,0,16.487-9,25.056-18.576,25.056S-4755.632,380.512-4755.632,363.952Zm9.36,0c0,12.528,5.113,17.065,9.216,17.065s9.216-4.536,9.216-17.065c0-12.455-5.185-16.992-9.216-16.992S-4746.272,351.5-4746.272,363.952Zm-44.423,23.113a23.908,23.908,0,0,1-5.833-4.1l3.1-8.065a14.594,14.594,0,0,0,4.968,4.32,14.223,14.223,0,0,0,6.984,1.8,9.616,9.616,0,0,0,7.344-2.88,10.172,10.172,0,0,0,2.52-6.984,8.184,8.184,0,0,0-2.808-6.624,10.625,10.625,0,0,0-7.488-2.448,19.76,19.76,0,0,0-10.368,3.1l5.688-25.2h22.176v8.065H-4780.4l-1.728,7.559a20.884,20.884,0,0,1,3.239-.288,17.506,17.506,0,0,1,12.385,4.825,15.883,15.883,0,0,1,4.247,11.52,16.7,16.7,0,0,1-4.9,12.527c-3.817,3.817-8.064,4.9-13.177,4.9A23.892,23.892,0,0,1-4790.7,387.064Zm-89.568-2.88a15.768,15.768,0,0,1-4.68-11.664c0-5.831,2.664-10.511,6.047-14.976L-4865.024,339h.9l6.9,3.352-11.664,15.192a12.586,12.586,0,0,1,5.256-1.151,15.8,15.8,0,0,1,10.584,4.1,15.886,15.886,0,0,1,4.535,11.52,16.537,16.537,0,0,1-4.392,11.591c-4.1,4.465-8.784,5.473-13.68,5.473C-4871.7,389.08-4876.3,388.144-4880.264,384.184Zm7.271-17.712a8.309,8.309,0,0,0-2.591,6.264,8.365,8.365,0,0,0,2.664,6.479,8.963,8.963,0,0,0,6.191,2.376,8.586,8.586,0,0,0,6.264-2.448,8.683,8.683,0,0,0,2.592-6.336,8.761,8.761,0,0,0-2.664-6.624,8.334,8.334,0,0,0-6.192-2.3A8.022,8.022,0,0,0-4872.993,366.472ZM-4902.943,388v-9.073h-23.473v-4.175l23.833-34.777h8.424V371.44h5.616v7.487h-5.616V388Zm-12.385-16.56h12.385V353.152Z" transform="translate(6166 7461)" fill="url(#linear-gradient)"/>
  </g>
</svg>
