<svg xmlns="http://www.w3.org/2000/svg" xmlns:xlink="http://www.w3.org/1999/xlink" width="341" height="125" viewBox="0 0 341 125">
  <defs>
    <filter id="_1_247_400" x="0" y="0" width="341" height="125" filterUnits="userSpaceOnUse">
      <feOffset dy="3" input="SourceAlpha"/>
      <feGaussianBlur stdDeviation="2" result="blur"/>
      <feFlood flood-opacity="0.161"/>
      <feComposite operator="in" in2="blur"/>
      <feComposite in="SourceGraphic"/>
    </filter>
    <linearGradient id="linear-gradient" x1="0.5" x2="0.5" y2="1" gradientUnits="objectBoundingBox">
      <stop offset="0" stop-color="#1a8017"/>
      <stop offset="0.5" stop-color="#66bc63"/>
      <stop offset="1" stop-color="#0c6509"/>
    </linearGradient>
  </defs>
  <g id="グループ_24" data-name="グループ 24" transform="translate(-1158 -9376)">
    <g transform="matrix(1, 0, 0, 1, 1158, 9376)" filter="url(#_1_247_400)">
      <text id="_1_247_400-2" data-name="1,247,400" transform="translate(16 84)" fill="none" stroke="#fff" stroke-linecap="round" stroke-linejoin="round" stroke-width="10" font-size="72" font-family="FuturaPT-Demi, Futura PT" font-weight="300"><tspan x="0" y="0">1,247,400</tspan></text>
    </g>
    <path id="交差_5" data-name="交差 5" d="M-4773.9,397.431l7.632-19.367,8.064.936-10.152,19.08Zm-130.463,0,7.632-19.367,8.064.936-10.152,19.08Zm103.319-11.52,22.1-37.872h-22.319v-8.064h37.008l-28.872,49.465Zm130.464-21.959c0-15.44,7.891-23.934,16.758-24.952h3.637c7.45.856,14.211,6.994,16.181,18.133v13.753c-2.129,12-9.856,18.193-18,18.193C-4661.576,389.08-4670.576,380.512-4670.576,363.952Zm9.36,0c0,12.527,5.112,17.064,9.216,17.064s9.215-4.536,9.215-17.064c0-12.457-5.184-16.992-9.215-16.992S-4661.216,351.5-4661.216,363.952Zm-50.256,0c0-15.44,7.891-23.934,16.757-24.952h3.637c8.866,1.018,16.757,9.517,16.757,25.024,0,16.488-9,25.056-18.575,25.056S-4711.472,380.512-4711.472,363.952Zm9.36,0c0,12.527,5.112,17.064,9.216,17.064s9.215-4.536,9.215-17.064c0-12.457-5.184-16.992-9.215-16.992S-4702.112,351.5-4702.112,363.952ZM-4729.185,388v-9.072h-23.472v-4.176l23.832-34.776h8.424V371.44h5.616v7.489h-5.616V388Zm-12.384-16.56h12.384V353.152ZM-4820.408,388v-9.072h-23.472v-4.176l23.832-34.776h8.424V371.44h5.616v7.489h-5.616V388Zm-12.384-16.56h12.384V353.152ZM-4883.408,388l14.112-16.055c.864-1.009,6.479-7.417,8.208-10.009,1.3-1.945,2.809-4.9,2.809-7.7a6.96,6.96,0,0,0-7.128-7.272c-4.9,0-7.487,3.888-7.632,7.992h-9.647c.4-9.06,6.346-15.1,14.76-15.952h4.293c9.712.936,14.714,8.048,14.714,15.16,0,7.415-4.968,12.744-8.711,16.775l-8.281,9h17.353V388Zm-40.176,0V348.04h-6.913v-8.064h16.272V388Z" transform="translate(6114 9072)" fill="url(#linear-gradient)"/>
  </g>
</svg>
