<svg xmlns="http://www.w3.org/2000/svg" xmlns:xlink="http://www.w3.org/1999/xlink" width="326" height="125" viewBox="0 0 326 125">
  <defs>
    <filter id="_1_177_000" x="0" y="0" width="326" height="125" filterUnits="userSpaceOnUse">
      <feOffset dy="3" input="SourceAlpha"/>
      <feGaussianBlur stdDeviation="2" result="blur"/>
      <feFlood flood-opacity="0.161"/>
      <feComposite operator="in" in2="blur"/>
      <feComposite in="SourceGraphic"/>
    </filter>
    <linearGradient id="linear-gradient" x1="0.5" x2="0.5" y2="1" gradientUnits="objectBoundingBox">
      <stop offset="0" stop-color="#1a8017"/>
      <stop offset="0.5" stop-color="#66bc63"/>
      <stop offset="1" stop-color="#0c6509"/>
    </linearGradient>
  </defs>
  <g id="_1_177_000-2" data-name="1,177,000" transform="translate(-1180 -7610)">
    <g transform="matrix(1, 0, 0, 1, 1180, 7610)" filter="url(#_1_177_000)">
      <text id="_1_177_000-3" data-name="1,177,000" transform="translate(16 84)" fill="none" stroke="#fff" stroke-linecap="round" stroke-linejoin="round" stroke-width="10" font-size="72" font-family="FuturaPT-Demi, Futura PT" font-weight="300"><tspan x="0" y="0">1,177,000</tspan></text>
    </g>
    <path id="交差_1" data-name="交差 1" d="M-4776.439,397.432l7.632-19.368,8.063.936L-4770.9,398.08Zm-115.92,0,7.632-19.368,8.064.936-10.151,19.081Zm88.776-11.52,22.1-37.872h-22.32v-8.064h37.008l-28.873,49.464Zm-40.9,0,22.1-37.872h-22.32v-8.064h37.007l-28.872,49.464Zm171.36-21.959c0-15.434,7.886-23.929,16.749-24.952h3.653c8.863,1.023,16.75,9.522,16.75,25.023,0,16.488-9,25.057-18.577,25.057S-4673.12,380.512-4673.12,363.952Zm9.36,0c0,12.528,5.112,17.063,9.215,17.063s9.217-4.536,9.217-17.063c0-12.456-5.185-16.992-9.217-16.992S-4663.76,351.5-4663.76,363.952Zm-50.257,0c0-15.434,7.887-23.929,16.75-24.952h3.653c8.863,1.023,16.749,9.522,16.749,25.023,0,16.488-9,25.057-18.576,25.057S-4714.017,380.512-4714.017,363.952Zm9.36,0c0,12.528,5.113,17.063,9.217,17.063s9.216-4.536,9.216-17.063c0-12.456-5.184-16.992-9.216-16.992S-4704.657,351.5-4704.657,363.952Zm-50.255,0c0-15.434,7.886-23.929,16.75-24.952h3.654c8.863,1.023,16.749,9.522,16.749,25.023,0,16.488-9,25.057-18.576,25.057S-4754.912,380.512-4754.912,363.952Zm9.36,0c0,12.528,5.112,17.063,9.217,17.063s9.216-4.536,9.216-17.063c0-12.456-5.185-16.992-9.216-16.992S-4745.552,351.5-4745.552,363.952ZM-4864.208,388V348.039h-6.912v-8.064h16.272V388Zm-47.375,0V348.039h-6.913v-8.064h16.272V388Z" transform="translate(6124 7306)" fill="url(#linear-gradient)"/>
  </g>
</svg>
