<svg xmlns="http://www.w3.org/2000/svg" xmlns:xlink="http://www.w3.org/1999/xlink" width="326" height="125" viewBox="0 0 326 125">
  <defs>
    <filter id="_1_171_500" x="0" y="0" width="326" height="125" filterUnits="userSpaceOnUse">
      <feOffset dy="3" input="SourceAlpha"/>
      <feGaussianBlur stdDeviation="2" result="blur"/>
      <feFlood flood-opacity="0.161"/>
      <feComposite operator="in" in2="blur"/>
      <feComposite in="SourceGraphic"/>
    </filter>
    <linearGradient id="linear-gradient" x1="0.5" x2="0.5" y2="1" gradientUnits="objectBoundingBox">
      <stop offset="0" stop-color="#1a8017"/>
      <stop offset="0.5" stop-color="#66bc63"/>
      <stop offset="1" stop-color="#0c6509"/>
    </linearGradient>
  </defs>
  <g id="_1_171_500-2" data-name="1,171,500" transform="translate(-1173 -10259)">
    <g transform="matrix(1, 0, 0, 1, 1173, 10259)" filter="url(#_1_171_500)">
      <text id="_1_171_500-3" data-name="1,171,500" transform="translate(16 84)" fill="none" stroke="#fff" stroke-linecap="round" stroke-linejoin="round" stroke-width="10" font-size="72" font-family="FuturaPT-Demi, Futura PT" font-weight="300"><tspan x="0" y="0">1,171,500</tspan></text>
    </g>
    <path id="交差_7" data-name="交差 7" d="M-4789.232,397.431l7.632-19.367,8.064.936-10.152,19.08Zm-115.127,0,7.632-19.367,8.064.936-10.152,19.08Zm47.879-11.52,22.1-37.872h-22.32v-8.064h37.008l-28.872,49.465Zm170.568-21.959c0-15.44,7.891-23.934,16.758-24.952h3.637c8.866,1.018,16.757,9.517,16.757,25.024,0,16.488-9,25.056-18.575,25.056S-4685.912,380.512-4685.912,363.952Zm9.36,0c0,12.527,5.112,17.064,9.216,17.064s9.215-4.536,9.215-17.064c0-12.457-5.184-16.992-9.215-16.992S-4676.552,351.5-4676.552,363.952Zm-50.256,0c0-15.44,7.891-23.934,16.758-24.952h3.637c8.866,1.018,16.757,9.517,16.757,25.024,0,16.488-9,25.056-18.575,25.056S-4726.808,380.512-4726.808,363.952Zm9.36,0c0,12.527,5.112,17.064,9.216,17.064s9.215-4.536,9.215-17.064c0-12.457-5.184-16.992-9.215-16.992S-4717.448,351.5-4717.448,363.952Zm-44.425,23.112a23.89,23.89,0,0,1-5.831-4.1l3.1-8.064a14.592,14.592,0,0,0,4.968,4.321,14.223,14.223,0,0,0,6.983,1.8,9.612,9.612,0,0,0,7.344-2.88,10.166,10.166,0,0,0,2.52-6.983,8.185,8.185,0,0,0-2.807-6.625,10.624,10.624,0,0,0-7.489-2.448,19.75,19.75,0,0,0-10.367,3.1l5.688-25.2h22.176v8.064h-15.983l-1.729,7.56a20.886,20.886,0,0,1,3.24-.288,17.5,17.5,0,0,1,12.384,4.825,15.878,15.878,0,0,1,4.248,11.52,16.7,16.7,0,0,1-4.9,12.527c-3.816,3.816-8.064,4.9-13.176,4.9A23.9,23.9,0,0,1-4761.873,387.064Zm-46.583.936V348.04h-6.912v-8.064h16.271V388Zm-67.752,0V348.04h-6.912v-8.064h16.272V388Zm-47.375,0V348.04h-6.913v-8.064h16.272V388Z" transform="translate(6129 9955)" fill="url(#linear-gradient)"/>
  </g>
</svg>
