<svg xmlns="http://www.w3.org/2000/svg" xmlns:xlink="http://www.w3.org/1999/xlink" width="295" height="125" viewBox="0 0 295 125">
  <defs>
    <filter id="_292_600" x="0" y="0" width="295" height="125" filterUnits="userSpaceOnUse">
      <feOffset dy="3" input="SourceAlpha"/>
      <feGaussianBlur stdDeviation="2" result="blur"/>
      <feFlood flood-opacity="0.161"/>
      <feComposite operator="in" in2="blur"/>
      <feComposite in="SourceGraphic"/>
    </filter>
    <linearGradient id="linear-gradient" x1="0.5" x2="0.5" y2="1" gradientUnits="objectBoundingBox">
      <stop offset="0" stop-color="#1a8017"/>
      <stop offset="0.5" stop-color="#66bc63"/>
      <stop offset="1" stop-color="#0c6509"/>
    </linearGradient>
  </defs>
  <g id="_292_600-2" data-name="292,600" transform="translate(-1204 -9531)">
    <g transform="matrix(1, 0, 0, 1, 1204, 9531)" filter="url(#_292_600)">
      <text id="_292_600-3" data-name="292,600" transform="translate(16 84)" fill="none" stroke="#fffcfc" stroke-linecap="round" stroke-linejoin="round" stroke-width="10" font-size="72" font-family="FuturaPT-Demi, Futura PT" font-weight="300"><tspan x="0" y="0">292,600</tspan></text>
    </g>
    <path id="交差_6" data-name="交差 6" d="M-4818.047,397.432l7.631-19.367,8.064.936-10.152,19.08Zm-69.7-11.808,11.448-14.975a16.96,16.96,0,0,1-5.112.936,15.894,15.894,0,0,1-10.513-4.1,15.884,15.884,0,0,1-4.536-11.519,16.542,16.542,0,0,1,4.392-11.592A16.224,16.224,0,0,1-4880.914,339h5.252a16.526,16.526,0,0,1,10.958,4.792,15.769,15.769,0,0,1,4.68,11.664c0,5.832-2.665,10.512-6.048,14.975l-14.113,18.864Zm3.241-36.792a8.684,8.684,0,0,0-2.593,6.335,8.758,8.758,0,0,0,2.665,6.624,8.33,8.33,0,0,0,6.191,2.305,8.057,8.057,0,0,0,6.265-2.593,8.65,8.65,0,0,0,2.591-6.263,8.624,8.624,0,0,0-2.663-6.48,8.965,8.965,0,0,0-6.193-2.377A8.584,8.584,0,0,0-4884.5,348.832Zm169.776,15.119c0-15.438,7.89-23.933,16.755-24.952h3.64c8.866,1.019,16.756,9.518,16.756,25.025,0,16.487-9,25.056-18.576,25.056S-4714.728,380.512-4714.728,363.951Zm9.359,0c0,12.529,5.113,17.065,9.216,17.065s9.217-4.536,9.217-17.065c0-12.456-5.184-16.992-9.217-16.992S-4705.369,351.5-4705.369,363.951Zm-50.255,0c0-15.438,7.89-23.933,16.756-24.952h3.64c8.866,1.019,16.757,9.518,16.757,25.025,0,16.487-9,25.056-18.577,25.056S-4755.624,380.512-4755.624,363.951Zm9.36,0c0,12.529,5.112,17.065,9.215,17.065s9.216-4.536,9.216-17.065c0-12.456-5.184-16.992-9.216-16.992S-4746.264,351.5-4746.264,363.951Zm-45.288,20.232a15.765,15.765,0,0,1-4.681-11.664c0-5.832,2.665-10.512,6.048-14.975L-4776.311,339h.9l6.9,3.352-11.664,15.192a12.594,12.594,0,0,1,5.257-1.153,15.8,15.8,0,0,1,10.583,4.1,15.884,15.884,0,0,1,4.536,11.519,16.541,16.541,0,0,1-4.392,11.592c-4.1,4.464-8.784,5.473-13.68,5.473C-4782.984,389.08-4787.592,388.145-4791.552,384.184Zm7.272-17.712a8.306,8.306,0,0,0-2.592,6.263,8.365,8.365,0,0,0,2.665,6.48,8.958,8.958,0,0,0,6.191,2.377,8.588,8.588,0,0,0,6.264-2.449,8.688,8.688,0,0,0,2.592-6.335,8.763,8.763,0,0,0-2.665-6.625,8.334,8.334,0,0,0-6.191-2.3A8.021,8.021,0,0,0-4784.28,366.472ZM-4856.568,388l14.112-16.056c.864-1.008,6.48-7.416,8.208-10.007,1.3-1.944,2.809-4.9,2.809-7.7a6.96,6.96,0,0,0-7.128-7.272c-4.9,0-7.488,3.889-7.631,7.992h-9.648c.4-9.059,6.346-15.1,14.76-15.952h4.3c9.711.937,14.712,8.049,14.712,15.16,0,7.416-4.968,12.743-8.712,16.776l-8.28,9h17.351V388Zm-80.136,0,14.113-16.056c.864-1.008,6.479-7.416,8.208-10.007,1.3-1.944,2.807-4.9,2.807-7.7a6.96,6.96,0,0,0-7.127-7.272c-4.9,0-7.488,3.889-7.633,7.992h-9.647c.4-9.059,6.346-15.1,14.759-15.952h4.3c9.711.937,14.713,8.049,14.713,15.16,0,7.416-4.968,12.743-8.712,16.776l-8.279,9h17.352V388Z" transform="translate(6158 9227)" fill="url(#linear-gradient)"/>
  </g>
</svg>
