<svg xmlns="http://www.w3.org/2000/svg" xmlns:xlink="http://www.w3.org/1999/xlink" width="339" height="125" viewBox="0 0 339 125">
  <defs>
    <filter id="_1_087_900" x="0" y="0" width="339" height="125" filterUnits="userSpaceOnUse">
      <feOffset dy="3" input="SourceAlpha"/>
      <feGaussianBlur stdDeviation="2" result="blur"/>
      <feFlood flood-opacity="0.161"/>
      <feComposite operator="in" in2="blur"/>
      <feComposite in="SourceGraphic"/>
    </filter>
    <linearGradient id="linear-gradient" x1="0.5" x2="0.5" y2="1" gradientUnits="objectBoundingBox">
      <stop offset="0" stop-color="#1a8017"/>
      <stop offset="0.5" stop-color="#66bc63"/>
      <stop offset="1" stop-color="#0c6509"/>
    </linearGradient>
  </defs>
  <g id="グループ_25" data-name="グループ 25" transform="translate(-1159 -8493)">
    <g transform="matrix(1, 0, 0, 1, 1159, 8493)" filter="url(#_1_087_900)">
      <text id="_1_087_900-2" data-name="1,087,900" transform="translate(16 84)" fill="none" stroke="#fff" stroke-linecap="round" stroke-linejoin="round" stroke-width="10" font-size="72" font-family="FuturaPT-Demi, Futura PT" font-weight="300"><tspan x="0" y="0">1,087,900</tspan></text>
    </g>
    <path id="交差_3" data-name="交差 3" d="M-4774.76,397.431l7.632-19.367,8.064.936-10.152,19.08Zm-129.6,0,7.632-19.367,8.064.936-10.152,19.08Zm102.457-11.52,22.1-37.872h-22.321v-8.064h37.008l-28.872,49.465Zm55.512-.287,11.448-14.977a16.9,16.9,0,0,1-5.112.937,15.9,15.9,0,0,1-10.512-4.1,15.882,15.882,0,0,1-4.537-11.52,16.537,16.537,0,0,1,4.393-11.592,16.215,16.215,0,0,1,11.15-5.368h5.25a16.526,16.526,0,0,1,10.959,4.791,15.77,15.77,0,0,1,4.68,11.665c0,5.831-2.664,10.511-6.048,14.976l-14.112,18.864Zm3.24-36.793a8.689,8.689,0,0,0-2.593,6.336,8.763,8.763,0,0,0,2.665,6.625,8.331,8.331,0,0,0,6.191,2.3,8.058,8.058,0,0,0,6.264-2.592,8.65,8.65,0,0,0,2.592-6.264,8.626,8.626,0,0,0-2.664-6.48,8.964,8.964,0,0,0-6.192-2.377A8.585,8.585,0,0,0-4743.151,348.832Zm71.064,15.121c0-15.44,7.891-23.934,16.757-24.952h3.637c8.867,1.018,16.758,9.517,16.758,25.024,0,16.488-9,25.056-18.577,25.056S-4672.087,380.512-4672.087,363.952Zm9.359,0c0,12.527,5.112,17.064,9.216,17.064s9.216-4.536,9.216-17.064c0-12.457-5.184-16.992-9.216-16.992S-4662.729,351.5-4662.729,363.952Zm-50.256,0c0-15.44,7.892-23.934,16.758-24.952h3.637c8.866,1.018,16.758,9.517,16.758,25.024,0,16.488-9,25.056-18.577,25.056S-4712.984,380.512-4712.984,363.952Zm9.36,0c0,12.527,5.112,17.064,9.216,17.064s9.217-4.536,9.217-17.064c0-12.457-5.184-16.992-9.217-16.992S-4703.625,351.5-4703.625,363.952ZM-4840.063,374.9a12.227,12.227,0,0,1,8.567-11.952,11.661,11.661,0,0,1-6.913-10.656c0-6.464,4.318-12.435,12.9-13.287h4.3c8.579.853,12.9,6.824,12.9,13.287a11.66,11.66,0,0,1-6.912,10.656,12.227,12.227,0,0,1,8.568,11.952c0,7.92-6.336,14.185-16.7,14.185S-4840.063,382.816-4840.063,374.9Zm9.36-.647a7.189,7.189,0,0,0,7.344,7.488,7.189,7.189,0,0,0,7.344-7.488,7.189,7.189,0,0,0-7.344-7.488A7.189,7.189,0,0,0-4830.7,374.248Zm.647-21.889a6.387,6.387,0,0,0,6.7,6.7,6.388,6.388,0,0,0,6.7-6.7,6.387,6.387,0,0,0-6.7-6.7A6.387,6.387,0,0,0-4830.056,352.359Zm-52.776,11.593c0-15.44,7.891-23.934,16.758-24.952h3.637c8.866,1.018,16.757,9.517,16.757,25.024,0,16.488-9,25.056-18.575,25.056S-4882.833,380.512-4882.833,363.952Zm9.36,0c0,12.527,5.112,17.064,9.216,17.064s9.216-4.536,9.216-17.064c0-12.457-5.185-16.992-9.216-16.992S-4873.472,351.5-4873.472,363.952ZM-4923.583,388V348.04h-6.913v-8.064h16.272V388Z" transform="translate(6115 8189)" fill="url(#linear-gradient)"/>
  </g>
</svg>
