<svg xmlns="http://www.w3.org/2000/svg" xmlns:xlink="http://www.w3.org/1999/xlink" width="326" height="125" viewBox="0 0 326 125">
  <defs>
    <filter id="_1_171_500" x="0" y="0" width="326" height="125" filterUnits="userSpaceOnUse">
      <feOffset dy="3" input="SourceAlpha"/>
      <feGaussianBlur stdDeviation="2" result="blur"/>
      <feFlood flood-opacity="0.161"/>
      <feComposite operator="in" in2="blur"/>
      <feComposite in="SourceGraphic"/>
    </filter>
    <linearGradient id="linear-gradient" x1="0.5" x2="0.5" y2="1" gradientUnits="objectBoundingBox">
      <stop offset="0" stop-color="#1a8017"/>
      <stop offset="0.5" stop-color="#66bc63"/>
      <stop offset="1" stop-color="#0c6509"/>
    </linearGradient>
  </defs>
  <g id="_1_980_000" data-name="1,980,000" transform="translate(-1149 -10414)">
    <g transform="matrix(1, 0, 0, 1, 1149, 10414)" filter="url(#_1_171_500)">
      <text id="_1_171_500-2" data-name="1,171,500" transform="translate(16 84)" fill="none" stroke="#fffcfc" stroke-linecap="round" stroke-linejoin="round" stroke-width="10" font-size="72" font-family="FuturaPT-Demi, Futura PT" font-weight="300"><tspan x="0" y="0">1,171,500</tspan></text>
    </g>
    <path id="交差_8" data-name="交差 8" d="M-4842.232,397.432l7.631-19.369,8.064.937-10.152,19.08Zm-115.127,0,7.631-19.369,8.063.937-10.151,19.08Zm47.88-11.52,22.1-37.872h-22.32v-8.064h37.008l-28.873,49.464Zm170.567-21.96c0-15.44,7.892-23.935,16.758-24.953h3.635c8.867,1.018,16.76,9.517,16.76,25.024,0,16.488-9,25.056-18.577,25.056S-4738.913,380.512-4738.913,363.953Zm9.361,0c0,12.527,5.112,17.063,9.215,17.063s9.216-4.536,9.216-17.063c0-12.457-5.184-16.992-9.216-16.992S-4729.552,351.5-4729.552,363.953Zm-50.257,0c0-15.44,7.892-23.935,16.759-24.953h3.635c8.866,1.018,16.758,9.517,16.758,25.024,0,16.488-9,25.056-18.576,25.056S-4779.809,380.512-4779.809,363.953Zm9.36,0c0,12.527,5.112,17.063,9.217,17.063s9.215-4.536,9.215-17.063c0-12.457-5.185-16.992-9.215-16.992S-4770.448,351.5-4770.448,363.953Zm-44.424,23.111a23.878,23.878,0,0,1-5.831-4.1l3.1-8.064a14.61,14.61,0,0,0,4.968,4.32,14.226,14.226,0,0,0,6.985,1.8,9.618,9.618,0,0,0,7.344-2.88,10.17,10.17,0,0,0,2.52-6.983,8.186,8.186,0,0,0-2.807-6.624,10.62,10.62,0,0,0-7.488-2.448,19.75,19.75,0,0,0-10.369,3.1l5.688-25.2h22.176v8.064h-15.985l-1.728,7.56a20.819,20.819,0,0,1,3.24-.289,17.505,17.505,0,0,1,12.383,4.824,15.883,15.883,0,0,1,4.249,11.52,16.7,16.7,0,0,1-4.9,12.528c-3.816,3.816-8.063,4.9-13.175,4.9A23.889,23.889,0,0,1-4814.873,387.064Zm-46.583.936V348.04h-6.912v-8.064h16.271V388Zm-67.751,0V348.04h-6.913v-8.064h16.271V388Zm-47.377,0V348.04h-6.912v-8.064h16.272V388Z" transform="translate(6158 10110)" fill="url(#linear-gradient)"/>
  </g>
</svg>
