<svg xmlns="http://www.w3.org/2000/svg" xmlns:xlink="http://www.w3.org/1999/xlink" width="349" height="125" viewBox="0 0 349 125">
  <defs>
    <filter id="_1_980_000" x="0" y="0" width="349" height="125" filterUnits="userSpaceOnUse">
      <feOffset dy="3" input="SourceAlpha"/>
      <feGaussianBlur stdDeviation="2" result="blur"/>
      <feFlood flood-opacity="0.161"/>
      <feComposite operator="in" in2="blur"/>
      <feComposite in="SourceGraphic"/>
    </filter>
    <linearGradient id="linear-gradient" x1="0.5" x2="0.5" y2="1" gradientUnits="objectBoundingBox">
      <stop offset="0" stop-color="#1a8017"/>
      <stop offset="0.5" stop-color="#66bc63"/>
      <stop offset="1" stop-color="#0c6509"/>
    </linearGradient>
  </defs>
  <g id="_1_980_000-2" data-name="1,980,000" transform="translate(-1149 -10414)">
    <g transform="matrix(1, 0, 0, 1, 1149, 10414)" filter="url(#_1_980_000)">
      <text id="_1_980_000-3" data-name="1,980,000" transform="translate(16 84)" fill="none" stroke="#fffcfc" stroke-linecap="round" stroke-linejoin="round" stroke-width="10" font-size="72" font-family="FuturaPT-Demi, Futura PT" font-weight="300"><tspan x="0" y="0">1,980,000</tspan></text>
    </g>
    <path id="交差_8" data-name="交差 8" d="M-4818.4,397.432l7.633-19.369,8.063.937-10.151,19.08Zm-138.959,0,7.631-19.369,8.063.937-10.151,19.08Zm28.367-11.809,11.449-14.975a16.933,16.933,0,0,1-5.112.936,15.9,15.9,0,0,1-10.512-4.1,15.883,15.883,0,0,1-4.536-11.521,16.544,16.544,0,0,1,4.391-11.591A16.224,16.224,0,0,1-4922.159,339h5.246a16.53,16.53,0,0,1,10.961,4.792,15.768,15.768,0,0,1,4.679,11.665c0,5.831-2.664,10.511-6.048,14.975l-14.112,18.864Zm3.24-36.791a8.692,8.692,0,0,0-2.592,6.335,8.762,8.762,0,0,0,2.665,6.624,8.335,8.335,0,0,0,6.191,2.3,8.055,8.055,0,0,0,6.264-2.592,8.651,8.651,0,0,0,2.592-6.264,8.628,8.628,0,0,0-2.664-6.481,8.973,8.973,0,0,0-6.193-2.376A8.593,8.593,0,0,0-4925.752,348.832Zm210.673,15.12c0-15.44,7.891-23.935,16.758-24.953h3.635c8.866,1.018,16.758,9.517,16.758,25.024,0,16.488-9,25.056-18.576,25.056S-4715.08,380.512-4715.08,363.953Zm9.359,0c0,12.527,5.112,17.063,9.216,17.063s9.216-4.536,9.216-17.063c0-12.457-5.185-16.992-9.216-16.992S-4705.72,351.5-4705.72,363.953Zm-50.255,0c0-15.44,7.892-23.935,16.758-24.953h3.635c8.866,1.018,16.758,9.517,16.758,25.024,0,16.488-9,25.056-18.576,25.056S-4755.976,380.512-4755.976,363.953Zm9.359,0c0,12.527,5.113,17.063,9.217,17.063s9.215-4.536,9.215-17.063c0-12.457-5.183-16.992-9.215-16.992S-4746.617,351.5-4746.617,363.953Zm-50.255,0c0-15.44,7.892-23.935,16.758-24.953h3.635c8.866,1.018,16.758,9.517,16.758,25.024,0,16.488-9,25.056-18.576,25.056S-4796.872,380.512-4796.872,363.953Zm9.359,0c0,12.527,5.113,17.063,9.217,17.063s9.216-4.536,9.216-17.063c0-12.457-5.185-16.992-9.216-16.992S-4787.513,351.5-4787.513,363.953Zm-68.832,0c0-15.44,7.892-23.935,16.758-24.953h3.635c8.867,1.018,16.758,9.517,16.758,25.024,0,16.488-9,25.056-18.576,25.056S-4856.344,380.512-4856.344,363.953Zm9.36,0c0,12.527,5.112,17.063,9.216,17.063s9.216-4.536,9.216-17.063c0-12.457-5.184-16.992-9.216-16.992S-4846.984,351.5-4846.984,363.953Zm-48.385,10.943a12.228,12.228,0,0,1,8.568-11.951,11.664,11.664,0,0,1-6.912-10.657c0-6.464,4.319-12.436,12.9-13.288h4.3c8.58.852,12.9,6.823,12.9,13.288a11.662,11.662,0,0,1-6.911,10.657,12.229,12.229,0,0,1,8.567,11.951c0,7.921-6.335,14.185-16.7,14.185S-4895.369,382.816-4895.369,374.9Zm9.36-.648a7.19,7.19,0,0,0,7.344,7.489,7.19,7.19,0,0,0,7.345-7.489,7.189,7.189,0,0,0-7.345-7.488A7.189,7.189,0,0,0-4886.008,374.248Zm.648-21.887a6.388,6.388,0,0,0,6.7,6.7,6.388,6.388,0,0,0,6.7-6.7,6.388,6.388,0,0,0-6.7-6.7A6.388,6.388,0,0,0-4885.36,352.36ZM-4976.584,388V348.04h-6.912v-8.064h16.272V388Z" transform="translate(6158 10110)" fill="url(#linear-gradient)"/>
  </g>
</svg>
