<svg xmlns="http://www.w3.org/2000/svg" width="47.952" height="48" viewBox="0 0 47.952 48">
  <g id="Icon" transform="translate(0 0)">
    <rect id="Area" width="47.494" height="47.494" transform="translate(0.459 0.506)" fill="#e65b1e" opacity="0"/>
    <g id="Icon-2" data-name="Icon" transform="translate(0 0)">
      <path id="f3c69d9b-fae2-4d36-a20e-ec93cc228691" d="M50.447,38.345v7.226a4.816,4.816,0,0,1-5.25,4.818,47.667,47.667,0,0,1-20.788-7.4A47,47,0,0,1,9.957,28.543,47.669,47.669,0,0,1,2.563,7.659a4.815,4.815,0,0,1,4.794-5.25h7.226A4.815,4.815,0,0,1,19.4,6.551a31.052,31.052,0,0,0,1.686,6.768A4.813,4.813,0,0,1,20,18.4l-3.058,3.06A38.544,38.544,0,0,0,31.395,35.913l3.058-3.06a4.82,4.82,0,0,1,5.084-1.084A30.8,30.8,0,0,0,46.3,33.455,4.817,4.817,0,0,1,50.447,38.345Z" transform="translate(-2.543 -2.409)" fill="#e65b1e"/>
    </g>
  </g>
</svg>
