<svg xmlns="http://www.w3.org/2000/svg" xmlns:xlink="http://www.w3.org/1999/xlink" width="438" height="154" viewBox="0 0 438 154">
  <defs>
    <filter id="吹き出し" x="0" y="0" width="438" height="154" filterUnits="userSpaceOnUse">
      <feOffset dy="3" input="SourceAlpha"/>
      <feGaussianBlur stdDeviation="3" result="blur"/>
      <feFlood flood-opacity="0.161"/>
      <feComposite operator="in" in2="blur"/>
      <feComposite in="SourceGraphic"/>
    </filter>
  </defs>
  <g id="グループ_30" data-name="グループ 30" transform="translate(-1011 -2316)">
    <g transform="matrix(1, 0, 0, 1, 1011, 2316)" filter="url(#吹き出し)">
      <path id="吹き出し-2" data-name="吹き出し" d="M30,136A30,30,0,0,1,0,106V30A30,30,0,0,1,30,0H375.2a30,30,0,0,1,30,30v3.075a17.012,17.012,0,0,1,4.552-1.01C417.6,31.494,420,35.016,420,35.016L405.2,45.2V106a30,30,0,0,1-30,30Z" transform="translate(429 142) rotate(180)" fill="#fff"/>
    </g>
    <text id="雨のあと_シミや雨だれ跡が残る" data-name="雨のあと、シミや雨だれ跡が残る" transform="translate(1058 2400)" font-size="24" font-family="NotoSansJP-Regular, Noto Sans JP"><tspan x="0" y="0">雨</tspan><tspan y="0">のあと、</tspan><tspan y="0" fill="#9a3333" font-weight="bold">シミや</tspan><tspan y="0" fill="#9a3333" font-weight="bold">雨</tspan><tspan y="0" fill="#9a3333" font-weight="bold">だれ</tspan><tspan y="0" fill="#9a3333" font-weight="bold">跡</tspan><tspan y="0">が</tspan><tspan y="0">残</tspan><tspan y="0">る</tspan></text>
  </g>
</svg>
